<?xml version="1.0" encoding="UTF-8" standalone="no"?>
<!-- Created with Inkscape (http://www.inkscape.org/) -->

<svg
   version="1.1"
   id="svg1"
   width="1024"
   height="1024"
   viewBox="0 0 1024 1024"
   sodipodi:docname="logo"
   inkscape:version="1.4.4 (1:1.4.4+202605061435+dcaf3e7d9e)"
   xmlns:inkscape="http://www.inkscape.org/namespaces/inkscape"
   xmlns:sodipodi="http://sodipodi.sourceforge.net/DTD/sodipodi-0.dtd"
   xmlns="http://www.w3.org/2000/svg"
   xmlns:svg="http://www.w3.org/2000/svg">
  <defs
     id="defs1" />
  <sodipodi:namedview
     id="namedview1"
     pagecolor="#505050"
     bordercolor="#eeeeee"
     borderopacity="1"
     inkscape:showpageshadow="0"
     inkscape:pageopacity="0"
     inkscape:pagecheckerboard="0"
     inkscape:deskcolor="#505050"
     showgrid="false"
     inkscape:zoom="0.70710678"
     inkscape:cx="262.33661"
     inkscape:cy="753.06872"
     inkscape:window-width="2503"
     inkscape:window-height="1371"
     inkscape:window-x="0"
     inkscape:window-y="0"
     inkscape:window-maximized="1"
     inkscape:current-layer="layer3" />
  <g
     inkscape:groupmode="layer"
     id="layer3"
     inkscape:label="backgroud"
     style="display:inline">
    <rect
       style="fill:#ffffff;fill-opacity:1"
       id="rect7"
       width="1025.3048"
       height="1025.3048"
       x="-1.4142135"
       y="-2.8284271" />
    <path
       style="fill:#ffffff;fill-opacity:1;stroke-width:1.41421"
       d="M 0.23570231,1022.9478 C -0.28284271,1022.4293 -0.70710678,791.41748 -0.70710678,509.58828 V -2.8284271 H 511.2382 1023.1835 V 510.53109 1023.8906 H 512.18101 c -281.05138,0 -511.42676282,-0.4242 -511.94530769,-0.9428 z M 176.83618,647.80606 c -0.448,-0.72488 0.94633,-1.52038 3.09852,-1.76777 2.20555,-0.25352 3.75879,-1.22118 3.55951,-2.21757 -0.19446,-0.97227 0.91924,-1.76777 2.47487,-1.76777 1.55564,0 2.82843,-0.74246 2.82843,-1.64992 0,-0.90744 0.39888,-1.25102 0.8864,-0.7635 1.28712,1.28712 8.52422,-2.75802 9.50443,-5.31244 0.45876,-1.1955 2.08142,-2.17363 3.60591,-2.17363 1.52448,0 3.77185,-1.00005 4.99413,-2.22234 1.22229,-1.22227 2.24257,-1.69957 2.26731,-1.06066 0.0247,0.63893 0.97934,-0.0736 2.12132,-1.58349 1.14199,-1.50985 2.07634,-2.28899 2.07634,-1.73145 0,0.55755 1.90919,0.0264 4.24264,-1.18024 2.33346,-1.20667 4.24265,-2.814 4.24265,-3.57185 0,-0.75784 0.47729,-1.26683 1.06066,-1.1311 1.7588,0.40925 8.83883,-3.43555 8.83883,-4.7999 0,-0.69887 0.59728,-0.90153 1.3273,-0.45035 0.73001,0.45116 1.98344,-0.30677 2.78542,-1.68432 0.80197,-1.37754 1.47748,-2.01097 1.50113,-1.40763 0.0648,1.65207 8.52829,-3.06414 8.52829,-4.7523 0,-0.80374 0.63639,-1.06804 1.41421,-0.58732 0.77782,0.48072 1.41421,0.16252 1.41421,-0.70711 0,-0.86963 0.6364,-1.18782 1.41422,-0.7071 0.77781,0.48071 1.41421,-0.0981 1.41421,-1.28637 0,-1.33933 0.80621,-1.85103 2.12132,-1.34638 1.16673,0.44773 2.12132,0.10955 2.12132,-0.75148 0,-0.86105 0.4773,-1.45446 1.06066,-1.31873 1.7588,0.40925 8.83884,-3.43555 8.83884,-4.7999 0,-0.69887 0.64089,-0.87457 1.42419,-0.39046 0.78332,0.4841 1.8046,-0.11107 2.26952,-1.32263 0.46491,-1.21157 1.36371,-1.88244 1.99731,-1.49086 0.63361,0.39159 2.11246,-0.24845 3.28633,-1.42233 1.17388,-1.17387 2.81618,-2.13432 3.64955,-2.13432 0.83338,0 1.51523,-0.6364 1.51523,-1.41421 0,-0.77782 0.4773,-1.27902 1.06066,-1.11377 1.45023,0.41082 7.89867,-3.19291 9.14081,-5.10835 0.55498,-0.85584 1.50958,-1.58734 2.12132,-1.62558 2.85956,-0.17873 7.4762,-2.37789 7.4762,-3.56132 0,-0.72539 0.88651,-1.31891 1.97001,-1.31891 1.08352,0 2.33633,-0.95459 2.78405,-2.12132 0.44772,-1.16672 1.77647,-2.12132 2.95278,-2.12132 1.17633,0 2.47271,-1.43189 2.88087,-3.18198 1.13111,-4.84997 0.16589,-142.10057 -1.00759,-143.27338 -0.56456,-0.56424 -1.96858,-0.24404 -3.12003,0.71159 -1.15146,0.95561 -2.75782,1.32694 -3.56972,0.82517 -0.81189,-0.50178 -1.47616,-0.22592 -1.47616,0.61302 0,0.83894 -1.52394,1.24899 -3.38654,0.91123 -2.40231,-0.43562 -4.53431,0.5839 -7.33567,3.50787 -2.17201,2.2671 -4.78462,4.12198 -5.80583,4.12198 -1.0212,0 -1.85673,0.50855 -1.85673,1.13011 0,0.62156 -2.22739,1.93555 -4.94975,2.91997 -2.72236,0.98442 -4.94975,2.32548 -4.94975,2.98013 0,0.65466 -1.12776,0.89536 -2.50612,0.53491 -1.48624,-0.38866 -3.88868,0.81627 -5.90338,2.96082 -1.86848,1.9889 -4.2355,3.6162 -5.26006,3.6162 -1.02455,0 -2.61803,1.20929 -3.54108,2.68731 -0.92304,1.47803 -2.51942,2.36454 -3.54751,1.97002 -1.0281,-0.39451 -1.86926,0.0247 -1.86926,0.93168 0,0.90694 -0.6364,1.25567 -1.41422,0.77495 -0.77781,-0.48072 -1.41421,-0.26907 -1.41421,0.47032 0,0.73941 -1.59099,1.74369 -3.53553,2.23173 -1.94455,0.48806 -3.53554,1.5492 -3.53554,2.3581 0,0.80891 -0.63639,1.07742 -1.41421,0.5967 -0.77782,-0.48072 -1.41467,-0.041 -1.41522,0.9772 -5.4e-4,1.01817 -1.60534,1.94386 -3.56622,2.05708 -4.31358,0.24907 -8.06239,3.08862 -6.79181,5.14447 0.57538,0.93098 0.0364,1.15387 -1.42979,0.59124 -1.29432,-0.49667 -2.35331,-0.25873 -2.35331,0.52878 0,0.7875 -0.7955,1.32852 -1.76777,1.20226 -3.75923,-0.48814 -5.3033,0.1901 -5.3033,2.32954 0,1.84357 -0.63736,1.72262 -3.72625,-0.70711 -2.04944,-1.61209 -4.63259,-2.93107 -5.74032,-2.93107 -1.10773,0 -1.62075,-0.6364 -1.14003,-1.41421 0.48072,-0.77782 -0.11812,-1.41422 -1.33075,-1.41422 -1.21263,0 -2.20478,-0.52248 -2.20478,-1.16108 0,-0.63859 -4.13658,-1.27505 -9.19239,-1.41435 -5.05582,-0.1393 -9.19239,0.33262 -9.19239,1.04871 0,0.7161 -1.88034,1.71498 -4.17854,2.21974 -2.41554,0.53055 -4.5584,2.11464 -5.07887,3.75449 -0.49519,1.56019 -1.25492,2.48213 -1.68829,2.04875 -1.61526,-1.61524 -5.72393,4.95562 -4.94978,7.91599 0.49467,1.89159 0.23634,2.66171 -0.69892,2.08369 -0.89473,-0.55297 -1.71138,1.03437 -2.05751,3.99919 -0.31565,2.70383 -0.0302,5.09729 0.63425,5.3188 0.66448,0.22149 0.60317,3.09531 -0.13626,6.38627 -1.35401,6.02629 -0.95626,6.68836 3.65823,6.08914 1.62135,-0.21055 2.40562,1.68625 1.90019,4.59574 -0.11137,0.64118 0.35329,0.82228 1.03258,0.40246 1.31681,-0.81384 6.68281,3.5904 7.55221,6.19862 0.28629,0.85888 4.09063,1.93007 8.4541,2.38041 9.00384,0.92928 18.9802,-2.43656 20.39027,-6.87932 0.44703,-1.40847 1.2863,-2.56084 1.86504,-2.56084 2.55911,0 7.0914,-5.81909 6.24672,-8.02029 -0.60381,-1.57351 -0.35569,-2.0073 0.75537,-1.32063 0.91001,0.56242 1.65455,0.34861 1.65455,-0.47511 0,-0.82372 1.59099,-1.49768 3.53553,-1.49768 2.16631,0 3.53554,-0.80435 3.53554,-2.07694 0,-1.35613 0.8167,-1.76352 2.3533,-1.17388 1.58235,0.6072 2.01833,0.361 1.33076,-0.75149 -0.61371,-0.993 -0.14102,-1.65454 1.18222,-1.65454 1.21263,0 2.20478,-0.67396 2.20478,-1.49768 0,-0.82373 0.70755,-1.06038 1.57233,-0.52592 0.86479,0.53446 2.08668,0.13951 2.71534,-0.87768 0.62865,-1.01718 2.1817,-2.00187 3.45119,-2.18819 2.99549,-0.43964 9.62078,-4.72133 11.06975,-7.15396 0.62201,-1.0443 2.34216,-1.89871 3.82254,-1.89871 4.14714,0 9.89577,-3.05575 9.89577,-5.26021 0,-1.08778 0.58299,-1.61748 1.29553,-1.17709 2.12105,1.31088 8.60396,-1.80423 8.60396,-4.1343 0,-1.18597 0.56221,-2.15632 1.24934,-2.15632 1.7434,0 2.90159,6.96082 1.32075,7.93783 -0.71877,0.44423 -0.76224,1.52858 -0.0979,2.44113 1.44314,1.98221 1.23308,69.59644 -0.23034,74.14083 -0.56722,1.76139 -1.64976,2.8203 -2.40565,2.35313 -1.8938,-1.17043 -5.67699,2.19506 -4.53841,4.03732 0.57538,0.93098 0.0364,1.15387 -1.42979,0.59124 -1.29432,-0.49667 -2.35331,-0.42614 -2.35331,0.15674 0,0.58287 -1.75009,1.81258 -3.88909,2.7327 -4.15557,1.78754 -9.09391,4.7605 -10.25305,6.17249 -0.38891,0.47375 -3.23904,1.74654 -6.33362,2.82843 -5.85801,2.04801 -11.00222,6.08013 -9.57628,7.50608 0.45372,0.45372 -0.84048,0.82495 -2.876,0.82495 -2.0543,0 -4.3172,1.10115 -5.08598,2.47487 -0.76175,1.36119 -1.58887,2.25693 -1.83804,1.99055 -0.72659,-0.77678 -8.2312,2.95543 -8.2312,4.09356 0,0.56864 -1.61701,1.43974 -3.59338,1.93577 -1.97635,0.49604 -3.19582,1.54513 -2.70993,2.33132 0.54931,0.88879 -0.38769,1.1104 -2.4774,0.58591 -2.51821,-0.63203 -4.49487,0.2402 -7.8838,3.47885 -2.48762,2.37731 -5.00604,4.32158 -5.59649,4.32063 -0.59043,-9.6e-4 -1.07353,-8.11501 -1.07353,-18.03122 0,-17.58019 -0.092,-18.11829 -3.69058,-21.59344 -2.02984,-1.96017 -4.15624,-5.03101 -4.72533,-6.82409 -0.56909,-1.79307 -1.37565,-2.91921 -1.79233,-2.50252 -0.41669,0.41668 -2.85226,-0.11759 -5.41238,-1.18729 -2.56014,-1.06968 -5.02489,-1.57478 -5.47724,-1.12243 -0.45235,0.45235 -0.82245,0.1 -0.82245,-0.78308 0,-0.88304 -0.90721,-1.25739 -2.01604,-0.8319 -2.25564,0.86557 -7.20371,-5.60095 -5.89993,-7.71049 1.1606,-1.87791 -3.96584,-2.93024 -6.73241,-1.382 -1.48393,0.83046 -2.32218,0.77973 -2.32218,-0.14054 0,-0.79205 -0.98061,-1.0638 -2.17915,-0.60387 -1.3868,0.53215 -2.02958,0.13036 -1.76776,-1.10505 0.22626,-1.06769 -0.37293,-1.7859 -1.33153,-1.596 -2.43945,0.48325 -3.63651,-5.395 -1.98384,-9.74182 1.26018,-3.31451 0.77632,-4.08956 -5.57842,-8.93576 -3.82706,-2.91854 -6.95829,-5.85805 -6.95829,-6.53222 0,-4.69792 -17.12047,-6.56406 -26.16295,-2.85177 -8.25144,3.38753 -15.771945,13.19301 -15.020783,19.58458 0.205678,1.75009 -0.30798,3.18198 -1.141462,3.18198 -0.833484,0 -1.515424,1.27279 -1.515424,2.82842 0,1.55564 0.616424,2.82843 1.369829,2.82843 0.753407,0 0.968203,1.04662 0.477325,2.32583 -0.538457,1.4032 0.09633,3.04888 1.600215,4.14854 1.370996,1.00249 2.100412,2.45749 1.620927,3.23332 -0.479485,0.77582 -0.225014,1.81032 0.56549,2.29887 0.790503,0.48855 1.437283,2.75992 1.437283,5.04747 0,4.42417 1.34297,5.05368 5.74983,2.69521 1.88561,-1.00916 2.73545,-1.00916 2.73545,0 0,0.80518 0.95459,1.46396 2.12132,1.46396 1.16673,0 2.12132,0.6364 2.12132,1.41422 0,0.77781 1.23523,1.41421 2.74497,1.41421 1.50973,0 3.19786,0.7328 3.7514,1.62845 0.70849,1.14638 1.51553,0.93224 2.72612,-0.72334 0.94582,-1.29349 2.91697,-2.24366 4.38032,-2.11149 5.82742,0.52634 9.02461,-0.29881 9.02461,-2.32915 0,-2.8471 0.70682,-2.70398 6.67523,1.35166 2.81103,1.91015 5.64106,3.14538 6.28893,2.74497 0.64788,-0.40042 1.17797,-0.0541 1.17797,0.76965 0,0.82372 0.99216,1.49768 2.20479,1.49768 1.21263,0 1.88795,0.51264 1.50071,1.1392 -0.38723,0.62656 1.4844,2.31776 4.15919,3.75823 2.67478,1.44047 4.86324,3.15521 4.86324,3.81055 0,0.65533 1.11369,1.21175 2.47487,1.23649 7.36607,0.13386 7.58199,2.33199 5.89943,60.0591 -0.21832,7.49037 1.58019,16.71409 3.51164,18.00957 2.09917,1.40796 2.58077,1.33741 1.60857,-0.23565 z m -17.03005,-7.98601 c 2.51973,-1.90906 2.80771,-3.67316 2.63861,-16.16352 -0.18442,-13.62235 -0.31189,-14.14265 -4.48741,-18.31817 -2.36367,-2.36368 -4.98294,-4.2976 -5.82059,-4.2976 -0.83764,0 -1.523,-0.70448 -1.523,-1.56552 0,-0.86103 -0.95459,-1.19921 -2.12132,-0.75148 -1.16672,0.44771 -2.12132,0.26659 -2.12132,-0.4025 0,-0.66908 -1.61701,-1.62236 -3.59337,-2.1184 -2.20486,-0.55338 -3.20815,-1.52518 -2.59643,-2.51496 0.64807,-1.0486 0.21437,-1.31277 -1.23934,-0.75494 -1.2872,0.49394 -2.5672,-0.004 -3.01603,-1.17388 -0.42887,-1.11761 -1.75433,-2.03203 -2.94547,-2.03203 -1.19114,0 -2.16571,-0.63639 -2.16571,-1.41421 0,-0.77782 -1.31035,-1.41421 -2.91189,-1.41421 -1.84093,0 -2.54076,-0.60049 -1.90281,-1.63273 0.62122,-1.00514 0.38836,-1.24909 -0.60579,-0.63467 -1.50543,0.93041 -2.78081,0.21133 -8.05277,-4.54029 -1.13376,-1.02185 -2.63598,-1.50281 -3.33826,-1.06878 -1.20983,0.74771 -3.30003,-2.49825 -3.57938,-5.55856 -0.071,-0.77782 -1.87606,-1.20958 -4.01123,-0.95945 -2.21237,0.25916 -3.88214,-0.23295 -3.88214,-1.14412 0,-0.87939 -0.67017,-1.18471 -1.48927,-0.67847 -0.81909,0.50623 -2.641871,-0.40856 -4.050613,-2.03285 -1.408741,-1.62428 -5.105025,-3.85072 -8.213966,-4.94761 -3.108939,-1.0969 -7.360225,-3.70198 -9.447302,-5.78904 -2.127569,-2.12757 -4.699011,-3.44767 -5.853114,-3.0048 -1.132136,0.43445 -2.05843,0.17347 -2.05843,-0.57992 0,-0.75341 -1.219265,-1.36984 -2.709477,-1.36984 -2.56036,0 -2.718955,-1.36595 -2.881699,-24.81931 l -0.172223,-24.8193 3.81423,-4.04119 c 2.097826,-2.22265 4.667383,-3.71379 5.710127,-3.31366 1.042742,0.40014 1.895896,-0.0145 1.895896,-0.92146 0,-0.90693 0.569711,-1.29687 1.266025,-0.86653 0.696315,0.43035 1.646413,-0.20882 2.111332,-1.42039 0.464918,-1.21156 1.445107,-1.83213 2.178197,-1.37906 0.73309,0.45308 2.970305,-0.81364 4.97159,-2.81492 2.001285,-2.00129 4.230648,-3.27286 4.954141,-2.82571 0.723492,0.44713 1.831851,-0.0302 2.46302,-1.06083 0.631168,-1.03059 3.534063,-2.98303 6.450876,-4.33874 2.91682,-1.3557 5.3033,-3.10902 5.3033,-3.89624 0,-0.78724 0.56972,-1.07923 1.26603,-0.64888 0.69631,0.43034 1.66589,-0.25958 2.15461,-1.53317 0.48872,-1.27358 1.2968,-1.90739 1.79574,-1.40845 0.83172,0.83172 12.94508,-5.42429 14.58261,-7.53127 0.38891,-0.50041 2.76731,-1.74305 5.28533,-2.76142 2.51802,-1.01838 4.23055,-2.41415 3.80563,-3.1017 -0.42493,-0.68755 0.44482,-1.25008 1.93278,-1.25008 1.48797,0 4.43329,-1.60137 6.54517,-3.55858 2.11187,-1.95723 4.4322,-3.19246 5.15625,-2.74498 0.72406,0.4475 1.31647,0.15965 1.31647,-0.63966 0,-0.79931 0.94576,-1.09037 2.10167,-0.64681 1.37485,0.52759 2.58187,-0.45656 3.49026,-2.84579 0.92814,-2.44119 2.10435,-3.37762 3.54706,-2.824 1.18716,0.45555 1.74561,1.49632 1.24099,2.31281 -0.51118,0.82711 -0.24494,1.06887 0.60121,0.54592 0.83529,-0.51624 2.51973,0.0624 3.7432,1.28588 1.22346,1.22346 2.82179,1.85532 3.55182,1.40414 0.73005,-0.45119 1.71205,-0.19789 2.18223,0.5629 0.55443,0.89708 2.12165,0.90163 4.45904,0.013 1.98228,-0.75367 4.13279,-1.04358 4.7789,-0.64426 0.64611,0.39931 1.39292,0.0715 1.65957,-0.72844 0.26665,-0.79995 2.3893,-1.77926 4.71698,-2.17623 2.32768,-0.39698 4.86856,-1.7081 5.64637,-2.91361 0.77782,-1.2055 3.42325,-5.28689 5.87873,-9.06977 3.93767,-6.06629 4.32089,-7.51283 3.2475,-12.25775 -0.66937,-2.95891 -0.88228,-6.72022 -0.47315,-8.35849 0.42998,-1.7217 -0.21618,-3.93874 -1.53118,-5.25374 -1.25128,-1.25129 -3.22575,-4.55041 -4.38773,-7.33139 -1.16196,-2.78098 -2.76596,-4.65255 -3.56445,-4.15906 -1.98086,1.22425 -8.66161,-0.56872 -7.73081,-2.07478 0.41084,-0.66475 -1.23946,-2.03143 -3.66733,-3.03709 -3.88617,-1.6097 -4.6335,-1.52868 -6.24648,0.67721 -1.37442,1.8796 -2.89637,2.27192 -6.09139,1.57019 -4.97155,-1.09194 -10.08194,1.18297 -10.08194,4.48802 0,1.269 -0.41614,1.89111 -0.92478,1.38248 -1.56638,-1.56639 -8.99139,7.24967 -8.08816,9.60344 0.45665,1.19 0.16579,2.16365 -0.64634,2.16365 -0.86549,0 -1.23913,2.1948 -0.90279,5.3033 0.3156,2.91681 0.22892,4.18961 -0.19261,2.82843 -0.42154,-1.36118 -1.42424,-2.47488 -2.22824,-2.47488 -0.80401,0 -1.10307,0.93491 -0.66458,2.07758 0.89183,2.32406 -2.41255,9.67524 -3.74853,8.33927 -0.46973,-0.46974 -1.81687,0.0172 -2.99364,1.08205 -5.20794,4.71271 -6.59567,5.56734 -7.81569,4.81333 -0.71478,-0.44175 -2.13864,0.3947 -3.16413,1.85879 -1.02549,1.46409 -2.18273,2.68869 -2.57163,2.72132 -2.19584,0.18422 -8.48529,3.7969 -8.48529,4.87397 0,0.69887 -0.56971,0.91857 -1.26602,0.48823 -0.69632,-0.43035 -1.6332,0.1744 -2.08197,1.34387 -0.44877,1.16947 -1.31095,1.99432 -1.91595,1.833 -2.49991,-0.66657 -7.46398,2.02644 -7.46398,4.04922 0,1.3048 -0.80865,1.86702 -2.01792,1.40297 -1.109858,-0.42589 -2.778771,0.14241 -3.708697,1.26291 -0.929925,1.12049 -2.596372,2.03726 -3.703213,2.03726 -1.106843,0 -3.535934,1.52349 -5.397981,3.38554 -1.862049,1.86205 -3.742311,3.02878 -4.178359,2.59272 -0.436049,-0.43604 -0.792817,0.0177 -0.792817,1.00841 0,1.06035 -0.918766,1.44866 -2.233698,0.94407 -3.640157,-1.39686 -9.08001,0.618 -9.08001,3.36311 0,2.83051 -3.31036,6.13759 -4.726315,4.72164 -0.511797,-0.51181 -0.93054,-0.18808 -0.93054,0.71936 0,0.90746 -0.992152,1.64992 -2.204783,1.64992 -1.21263,0 -1.810858,0.63739 -1.329394,1.41641 0.547443,0.88578 -1.010699,1.17493 -4.159178,0.77182 -2.769012,-0.35451 -5.044732,-0.1964 -5.057156,0.35136 -0.04558,2.00952 -8.096194,10.08343 -9.076674,9.10296 -0.556804,-0.55681 -1.632659,0.096 -2.390788,1.45071 -0.758128,1.3547 -2.2333,2.46309 -3.278158,2.46309 -1.044859,0 -2.286028,1.00664 -2.758155,2.23699 -0.472127,1.23034 -0.858412,18.55187 -0.858412,38.49229 v 36.25532 l 3.755499,3.22699 c 2.065526,1.77486 4.61111,3.22701 5.656855,3.22701 1.045745,0 1.901355,0.74247 1.901355,1.64992 0,0.90745 0.420215,1.22971 0.933812,0.71611 0.513597,-0.5136 1.715345,0.17582 2.670551,1.53206 0.955207,1.35623 4.989763,3.71966 8.965683,5.25207 3.975918,1.53242 7.228943,3.28251 7.228943,3.88909 0,0.60659 0.954595,1.10289 2.121321,1.10289 1.166726,0 2.12132,0.5952 2.12132,1.32267 0,0.72747 2.227386,2.12811 4.949747,3.11253 2.722362,0.98442 4.949748,2.19626 4.949748,2.69296 0,1.09439 7.34815,4.77921 8.838835,4.43234 0.583363,-0.13573 1.06066,0.3896 1.06066,1.16742 0,0.77782 0.876671,1.41421 1.948157,1.41421 1.071487,0 2.734585,0.9476 3.695774,2.10575 0.961189,1.15816 2.311905,1.75701 3.00159,1.33075 0.689686,-0.42624 1.253974,-0.10104 1.253974,0.72268 0,0.82372 0.954594,1.49768 2.121324,1.49768 1.16672,0 2.12132,0.53425 2.12132,1.1872 0,1.30276 7.13874,5.11203 8.83883,4.71645 0.58336,-0.13574 1.06066,0.28745 1.06066,0.94041 0,1.30276 7.13874,5.11203 8.83884,4.71644 0.58336,-0.13573 1.06066,0.3896 1.06066,1.16742 0,0.77782 0.90156,1.41421 2.00347,1.41421 1.1019,0 2.2156,0.58867 2.47487,1.30815 0.25927,0.71948 1.37296,1.51498 2.47487,1.76777 1.10191,0.25279 3.15401,1.55712 4.56023,2.89851 1.40621,1.3414 4.32302,2.863 6.4818,3.38132 4.55125,1.09275 8.87481,5.11815 8.87481,8.2628 0,2.81777 5.44505,2.7867 9.19239,-0.0525 z m 526.08744,-84.03412 c -0.48071,-0.77782 -0.2697,-1.41422 0.46893,-1.41422 0.73862,0 1.70058,-2.06828 2.13767,-4.59619 2.61767,-15.13911 4.61799,-18.59647 8.76705,-15.15306 1.56123,1.29572 2.6152,1.37634 3.70787,0.28368 0.83963,-0.83963 2.33928,-1.21475 3.33254,-0.83359 0.99327,0.38114 2.22751,0.0109 2.74276,-0.82282 0.53322,-0.86276 2.5136,-1.12007 4.59664,-0.59727 2.56578,0.64398 3.36041,0.43415 2.65829,-0.70191 -0.6288,-1.0174 0.0821,-1.62047 1.91038,-1.62047 1.60154,0 2.91189,-0.63639 2.91189,-1.41421 0,-0.77782 0.63593,-1.25511 1.41318,-1.06066 2.49516,0.62423 12.72954,-12.15444 11.89269,-14.84924 -0.42397,-1.36526 -0.0413,-2.47488 0.85354,-2.47488 1.15074,0 1.34244,-2.61119 0.65971,-8.98632 -0.80156,-7.48495 -0.58808,-9.12996 1.27782,-9.84597 1.30913,-0.50237 1.8933,-1.76351 1.40558,-3.03449 -0.61944,-1.61425 0.11577,-2.17485 2.85227,-2.17485 3.77911,0 4.86527,2.49854 2.23124,5.13257 -0.99801,0.99801 -0.82326,2.67447 0.55587,5.33274 1.32288,2.54987 2.26709,3.23769 2.75817,2.00922 0.41068,-1.02736 0.7522,0.35946 0.75895,3.08182 0.009,3.7265 -0.25398,4.26947 -1.06498,2.19705 -1.00123,-2.55849 -1.14008,-2.51229 -1.96834,0.65497 -0.54907,2.09961 -0.10972,4.27108 1.14456,5.65705 1.21978,1.34783 1.80282,4.08952 1.45466,6.84042 -0.4863,3.84262 -0.0141,4.80655 2.89672,5.91324 1.91277,0.72723 3.84889,2.28939 4.30248,3.47144 1.45504,3.79178 9.19836,6.19255 18.90178,5.86038 l 9.19239,-0.31467 0.43246,-6.68935 c 0.24163,-3.73763 1.02168,-6.3252 1.76776,-5.8641 0.73911,0.45679 1.33532,-1.35446 1.33532,-4.05663 0,-5.94002 -2.46819,-7.19582 -8.87855,-4.5174 -4.37358,1.8274 -4.83675,1.75535 -6.57147,-1.02238 -1.02643,-1.64359 -2.1775,-7.86376 -2.55791,-13.82264 l -0.69168,-10.83429 4.60094,0.67528 c 3.20125,0.46984 4.29933,0.18724 3.60949,-0.92893 -0.67754,-1.0963 0.84045,-1.60421 4.79444,-1.60421 4.6784,0 6.0307,-0.60906 7.06488,-3.18198 0.70345,-1.75009 1.32908,-2.54559 1.3903,-1.76777 0.0612,0.77782 0.7282,0.45962 1.4822,-0.70711 1.01013,-1.56306 1.37089,-0.63263 1.37089,3.53554 0,3.7694 -0.41203,5.00631 -1.2349,3.70714 -0.75692,-1.19503 -1.31331,3.63784 -1.43745,12.48557 -0.13479,9.60676 0.28553,14.13365 1.25657,13.53352 0.89996,-0.55621 1.4591,1.05895 1.4591,4.21489 0,3.051 -0.57095,4.76381 -1.41421,4.24264 -2.52723,-1.56191 -1.41912,6.95239 1.33439,10.25305 2.09522,2.51154 4.09661,3.17251 9.49889,3.13701 11.45341,-0.0753 11.16164,0.86896 11.11057,-35.95625 l -0.045,-32.46568 -3.52479,-0.84765 -3.5248,-0.84765 4.53395,-4.56342 c 2.64396,-2.66115 4.20207,-5.4283 3.73778,-6.6382 -0.43789,-1.14113 -0.0917,-2.07478 0.76935,-2.07478 3.01857,0 1.52376,-4.56108 -2.82669,-8.62499 -2.4157,-2.25662 -4.96128,-4.10293 -5.65685,-4.10293 -0.69555,0 -1.26465,-0.6364 -1.26465,-1.41421 0,-0.77782 -1.27279,-1.41422 -2.82842,-1.41422 -1.55564,0 -2.82843,0.6364 -2.82843,1.41422 0,0.77781 -0.9546,1.41421 -2.12132,1.41421 -1.16673,0 -2.12132,0.56218 -2.12132,1.24927 0,0.6871 -1.18776,1.55988 -2.63946,1.93951 -2.19148,0.57308 -2.6733,2.18761 -2.83889,9.51265 -0.15543,6.87548 0.22129,8.66097 1.70705,8.09083 1.04856,-0.40237 2.75857,-0.20496 3.80002,0.43869 2.41788,1.49433 3.07456,5.63911 0.89343,5.63911 -1.6071,0 -5.03758,4.29628 -6.67942,8.3652 -0.44411,1.10068 -1.87601,2.15806 -3.18198,2.34974 -2.85269,0.41868 -3.36003,-6.33527 -0.6774,-9.01789 1.86102,-1.86102 2.39682,-1.72907 -8.76813,-2.15906 -5.31747,-0.2048 -6.43447,-0.73935 -6.79278,-3.2508 -0.23585,-1.65314 0.63542,-4.06994 1.93613,-5.37064 3.04029,-3.04031 2.52311,-3.44253 -5.86172,-4.55876 -3.82761,-0.50956 -7.46574,-1.78067 -8.08473,-2.82468 -0.9185,-1.54922 -1.82856,-1.451 -4.94975,0.53416 -2.10337,1.3378 -4.29187,3.08346 -4.86332,3.87924 -0.67312,0.93739 -1.06176,0.94888 -1.10367,0.0327 -0.0356,-0.77782 -0.72692,-0.27621 -1.53636,1.11468 -0.80945,1.39088 -1.03964,4.49607 -0.51157,6.90042 0.93602,4.26163 0.84661,4.35486 -3.55638,3.70863 -3.77758,-0.55443 -4.72806,-0.10653 -5.80939,2.73759 -0.71107,1.87026 -1.29286,4.95004 -1.29286,6.84395 0,3.91498 -1.66115,4.43265 -4.24265,1.32215 -0.96829,-1.16673 -1.28649,-2.12132 -0.7071,-2.12132 0.57939,0 0.22446,-0.99885 -0.78871,-2.21964 -1.01317,-1.2208 -3.00028,-1.91678 -4.4158,-1.54661 -1.41551,0.37016 -2.57367,0.0962 -2.57367,-0.60879 0,-0.705 -0.99215,-1.28182 -2.20478,-1.28182 -1.21264,0 -1.81147,-0.63639 -1.33075,-1.41421 0.48072,-0.77782 -0.15568,-1.41421 -1.41421,-1.41421 -1.38697,0 -1.88549,-0.65169 -1.26568,-1.65455 0.69716,-1.12805 0.23689,-1.35305 -1.44642,-0.70711 -1.35794,0.5211 -4.48522,0.95719 -6.94951,0.96909 -3.54419,0.0171 -4.03722,0.33362 -2.35921,1.51443 1.62687,1.14481 1.05,1.36167 -2.47487,0.93038 -2.52791,-0.30931 -4.5962,-0.14756 -4.5962,0.35945 0,0.50701 -2.22552,0.87409 -4.94559,0.81574 -2.72007,-0.0584 -4.94745,-0.58341 -4.94974,-1.16677 -0.002,-0.58337 -3.29514,-1.06066 -7.31743,-1.06066 -8.4058,0 -12.46148,2.70284 -12.53069,8.35091 -0.0409,3.33673 -0.21409,3.44722 -1.90761,1.217 -1.02444,-1.34908 -2.23629,-2.07921 -2.69299,-1.62251 -1.54833,1.54833 -0.64959,-8.63878 0.94268,-10.68506 1.28027,-1.64534 1.09007,-1.84818 -0.99838,-1.06472 -2.53695,0.9517 -6.61244,-1.71913 -6.61244,-4.33338 0,-1.72597 -6.39403,-7.62423 -7.29181,-6.72643 -0.39492,0.3949 -3.52968,-1.8589 -6.96616,-5.00848 -5.69346,-5.21814 -6.7698,-5.66138 -12.12465,-4.99314 -4.65711,0.58119 -6.09764,0.22923 -6.94204,-1.69611 -0.58602,-1.3362 -0.9174,-3.048 -0.73636,-3.80399 0.18103,-0.75598 -0.88175,-0.27869 -2.36171,1.06066 -1.47998,1.33936 -4.54994,2.44493 -6.82214,2.45684 -3.1872,0.0167 -3.64652,0.33494 -2.00996,1.39256 3.2513,2.10116 -0.87734,1.76544 -4.34796,-0.35355 -2.38521,-1.45629 -3.19168,-1.39256 -4.577,0.36163 -0.92491,1.17118 -3.48481,2.22085 -5.68869,2.33262 -2.30598,0.11694 -5.00761,1.53206 -6.36396,3.33347 -3.91885,5.20468 -8.7682,9.13846 -11.2886,9.15728 -1.64895,0.0123 -2.51841,1.43229 -2.82518,4.61399 -0.24374,2.52791 -1.03924,4.59619 -1.76777,4.59619 -0.72853,0 -1.32461,-0.63639 -1.32461,-1.41421 0,-0.77782 -0.99216,-1.41421 -2.20479,-1.41421 -1.21263,0 -1.85127,0.57199 -1.4192,1.27108 0.43205,0.69908 1.1047,4.04016 1.49474,7.42462 l 0.70917,6.15354 -2.44594,-3.88909 c -1.34527,-2.139 -2.97249,-3.88909 -3.61606,-3.88909 -0.64357,0 -0.77681,-0.63639 -0.29609,-1.41421 0.5481,-0.88685 -2.52032,-1.41421 -8.22866,-1.41421 -9.5843,0 -13.08972,1.89453 -11.44342,6.18471 0.48765,1.27079 0.18205,2.30057 -0.68271,2.30057 -0.86105,0 -1.56552,1.59099 -1.56552,3.53553 0,1.94455 -0.4773,3.46017 -1.06066,3.36806 -3.43816,-0.54286 -4.61792,0.33543 -3.54937,2.64235 0.63048,1.36118 1.04448,3.42947 0.91999,4.59619 -0.12449,1.16673 -0.29976,2.95438 -0.38948,3.97256 -0.0897,1.01817 -0.79952,1.45791 -1.57734,0.97719 -0.79595,-0.49192 -1.41421,0.64198 -1.41421,2.59365 0,4.90898 -3.746,5.9416 -4.89836,1.35028 -0.50329,-2.00527 -0.24344,-4.31756 0.57743,-5.13843 2.38959,-2.3896 1.72467,-7.77412 -1.14999,-9.31258 -1.45336,-0.77782 -3.04435,-1.01235 -3.53553,-0.52117 -0.49117,0.49119 -0.89305,-0.80401 -0.89305,-2.87818 0,-2.07418 -0.64851,-3.77124 -1.44115,-3.77124 -0.79762,0 -1.07663,-1.4524 -0.62483,-3.25252 1.19405,-4.75747 -3.79193,-6.89326 -14.86799,-6.36884 -8.9087,0.42182 -9.07969,0.50568 -10.24554,5.02517 -1.41624,5.49019 -4.87145,6.03218 -6.76161,1.06066 -1.03275,-2.71631 -2.35474,-3.53554 -5.70532,-3.53554 -2.39861,0 -4.01747,-0.55601 -3.59746,-1.23559 1.1032,-1.78501 -12.38218,-3.28917 -16.34339,-1.82294 -1.83987,0.68101 -4.14071,0.95836 -5.11298,0.61631 -0.97227,-0.34205 -1.76776,0.14175 -1.76776,1.0751 0,1.00074 -1.16047,1.39354 -2.82843,0.95736 -1.82875,-0.47824 -2.82843,-0.0434 -2.82843,1.23029 0,1.08347 -2.22739,2.90061 -4.94975,4.03807 -2.72236,1.13749 -5.02929,2.73702 -5.12652,3.55452 -0.0972,0.81751 -0.25633,2.00913 -0.35355,2.64806 -0.0972,0.63891 -1.31207,2.29696 -2.69965,3.68455 -1.52761,1.5276 -2.1874,3.57991 -1.67248,5.20228 0.46774,1.47368 0.23521,2.67941 -0.5167,2.67941 -1.40633,0 -3.1252,-9.95516 -3.09763,-17.9406 0.0116,-3.35481 -1.0191,-5.24231 -4.03543,-7.39013 -2.22805,-1.58652 -4.41234,-4.65017 -4.85397,-6.80814 -1.42188,-6.9478 -4.52332,-9.42871 -12.72932,-10.18245 -0.62927,-0.0578 -0.7508,-0.74148 -0.27009,-1.5193 0.48072,-0.77782 0.20009,-1.41421 -0.62364,-1.41421 -0.82372,0 -1.49768,-0.93654 -1.49768,-2.0812 0,-1.68133 -1.52742,-1.92561 -7.94988,-1.27142 -5.60155,0.57058 -7.66564,0.34985 -6.9876,-0.74723 1.61037,-2.60566 -38.17584,-2.57888 -40.89527,0.0275 -0.84933,0.81404 -1.29722,16.21461 -1.15732,39.7948 0.13885,23.40258 -0.31465,39.12096 -1.15802,40.13715 -0.91239,1.09938 -0.87936,1.98356 0.0967,2.58678 0.8156,0.50405 1.48289,2.34263 1.48289,4.0857 0,5.83694 2.36457,6.56594 21.14249,6.51837 12.51879,-0.0317 18.47811,-0.59891 20.22493,-1.9249 1.36208,-1.03395 4.06677,-1.57592 6.01041,-1.20437 2.15954,0.41282 3.53386,0.0244 3.53386,-0.99883 0,-0.96212 1.07132,-1.33436 2.51845,-0.87506 1.57075,0.49853 3.28475,-0.26385 4.55484,-2.02602 1.12001,-1.55394 2.93661,-2.82534 4.0369,-2.82534 1.10027,0 3.34627,-1.44165 4.9911,-3.20366 3.9456,-4.22671 11.48955,-9.52427 13.56297,-9.52427 2.20291,0 4.64156,2.68721 6.73791,7.42462 0.94653,2.139 2.29678,3.88909 3.00055,3.88909 0.70377,0 1.61243,1.27279 2.01924,2.82843 0.50514,1.93169 1.929,2.82843 4.49105,2.82843 2.50408,0 3.41139,0.55013 2.72882,1.65454 -0.68424,1.10713 -0.25634,1.36052 1.29336,0.76584 1.39081,-0.5337 2.8248,0.0206 3.58988,1.38775 0.96053,1.71641 2.54319,2.07048 6.43305,1.43925 3.42246,-0.55539 4.85078,-0.33835 4.24319,0.64475 -0.60398,0.97727 0.22572,1.11962 2.43638,0.41799 1.84375,-0.58519 5.11689,-1.01381 7.27362,-0.95249 2.15673,0.0613 3.55413,-0.48267 3.10532,-1.20885 -0.44882,-0.7262 0.017,-1.388 1.0352,-1.47069 1.01818,-0.0827 3.12145,-0.24177 4.67394,-0.35355 1.55248,-0.11177 2.82527,-1.15782 2.82842,-2.32454 0.003,-1.16673 0.64213,-2.12598 1.41994,-2.13165 2.99766,-0.0219 8.12903,-4.8137 7.34441,-6.85838 -0.44934,-1.17094 0.77066,-3.80015 2.75874,-5.94531 3.85937,-4.16434 3.25765,-5.33734 -3.73919,-7.2891 -3.52588,-0.98354 -3.52396,-0.98835 0.70711,-1.76205 3.81624,-0.69785 4.28575,-1.3669 4.67153,-6.65705 0.25582,-3.50801 1.25449,-6.19804 2.47487,-6.66634 1.82932,-0.70198 2.3067,0.006 1.9252,2.85709 -0.0664,0.49639 0.58913,1.3413 1.45681,1.87755 1.1226,0.6938 0.95601,2.16699 -0.57761,5.10786 -2.52598,4.84388 -2.83349,7.48072 -0.6135,5.26073 2.01151,-2.01151 7.00578,1.96885 5.94356,4.73694 -0.40383,1.05234 -0.0244,1.91336 0.84328,1.91336 1.09517,0 1.03333,0.89211 -0.20226,2.91773 -1.56283,2.5621 -1.29576,3.33807 2.19121,6.36654 2.18403,1.89685 3.56737,4.10182 3.07409,4.89995 -0.49326,0.79813 0.58359,2.68498 2.39302,4.19302 6.01355,5.01186 26.4424,2.60527 23.147,-2.72681 -0.51269,-0.82956 -0.21534,-1.5083 0.66079,-1.5083 0.94941,0 1.2303,-1.1427 0.69527,-2.82842 -0.65393,-2.06036 -0.25413,-2.82843 1.47223,-2.82843 1.84224,0 2.16572,-0.81361 1.45283,-3.65403 -0.54335,-2.16491 -0.37141,-3.31677 0.42191,-2.82648 0.76637,0.47365 0.99774,-0.47742 0.54102,-2.22396 -0.54749,-2.09355 -0.28326,-2.73341 0.84164,-2.03818 1.98816,1.22875 4.75354,-5.23884 3.56468,-8.33696 -0.52055,-1.35651 0.009,-2.13359 1.45388,-2.13359 2.69529,0 2.92881,-1.60657 0.57557,-3.9598 -1.31993,-1.31993 -1.31993,-1.69706 0,-1.69706 0.93338,0 1.69706,-1.1197 1.69706,-2.48824 0,-1.36853 1.31622,-3.31023 2.92492,-4.31489 2.34673,-1.46556 2.73617,-2.68602 1.9701,-6.17396 -0.66235,-3.01566 -0.47531,-4.05096 0.61061,-3.37983 0.86099,0.53213 1.56544,1.88454 1.56544,3.00536 0,1.12082 0.63639,2.03785 1.41421,2.03785 0.77782,0 1.41421,0.9546 1.41421,2.12132 0,1.16673 -0.79549,1.96222 -1.76776,1.76777 -1.05212,-0.21042 -1.58419,0.79148 -1.3143,2.47487 1.30933,8.16696 2.11241,10.49877 3.35189,9.73273 0.83742,-0.51754 1.05084,1.14608 0.55074,4.29284 -0.72089,4.53604 -0.40265,5.29522 2.71697,6.48129 1.94345,0.7389 3.53353,1.97884 3.53353,2.75544 0,1.81898 12.36487,14.21436 14.17936,14.21436 0.75734,0 1.37699,0.70448 1.37699,1.56552 0,0.86103 0.95459,1.19921 2.12132,0.75149 1.16673,-0.44771 2.12132,-0.35295 2.12132,0.21057 0,5.02043 32.83678,7.57945 35.52895,2.76882 0.72347,-1.29277 2.25317,-1.99064 3.39933,-1.55082 1.14615,0.43982 2.08391,0.0576 2.08391,-0.84931 0,-0.90694 0.6364,-1.25567 1.41422,-0.77495 0.77781,0.48072 1.41421,0.13199 1.41421,-0.77494 0,-0.90694 0.97497,-1.27486 2.16659,-0.81759 1.43223,0.54959 2.60765,-0.32866 3.46785,-2.59113 1.38815,-3.65112 6.0957,-6.94932 7.67074,-5.37428 0.52202,0.52202 1.3108,-0.43389 1.75284,-2.12424 0.44204,-1.69037 2.02742,-3.46177 3.52306,-3.93648 2.21336,-0.70248 2.55796,-1.72327 1.85206,-5.4861 -0.63481,-3.38386 -0.19706,-5.29324 1.63317,-7.12348 2.39114,-2.39115 2.55836,-2.35428 3.8246,0.84307 0.72828,1.83895 1.16582,7.79832 0.97233,13.24304 -0.40308,11.34247 -0.45648,16.62155 -0.22885,22.62741 0.0885,2.33346 0.088,6.34436 -9.7e-4,8.91314 -0.089,2.56878 0.67181,6.22806 1.69062,8.13173 1.66859,3.1178 2.74905,3.46123 10.88927,3.46123 5.66447,0 8.7107,-0.52776 8.16284,-1.41421 z m 164.04878,-22.74442 c -2.09368,-0.9863 -1.10448,-1.19167 3.80795,-0.79057 4.83641,0.39488 6.84747,-0.008 7.41464,-1.48625 0.42804,-1.11545 1.41913,-1.63199 2.20245,-1.14789 0.78331,0.48411 1.4242,0.21375 1.4242,-0.60079 0,-0.81456 1.43189,-1.32942 3.18198,-1.14413 1.9378,0.20516 3.04148,-0.36109 2.82267,-1.44817 -0.19762,-0.98177 1.70539,-3.04067 4.22891,-4.57532 2.52352,-1.53464 4.65657,-3.59515 4.7401,-4.57891 0.0835,-0.98375 0.24881,-3.57629 0.36729,-5.76119 0.11847,-2.18491 0.79745,-3.61282 1.50882,-3.17317 0.71138,0.43966 1.63278,-7e-5 2.04753,-0.9772 0.41476,-0.97712 0.6362,3.00437 0.49209,8.84776 -0.22967,9.31234 0.12872,11.0151 2.90221,13.78858 2.40539,2.4054 4.80747,3.16425 10.01612,3.16425 10.43681,0 11.34542,-1.7123 11.65034,-21.95561 0.1403,-9.31439 -0.21501,-18.04896 -0.78959,-19.41014 -0.74448,-1.76369 -0.39162,-2.47487 1.22795,-2.47487 1.24995,0 2.27263,-0.59352 2.27263,-1.31891 0,-0.72541 1.27279,-1.68 2.82842,-2.12132 1.55564,-0.44133 4.18091,-1.18879 5.83396,-1.66102 2.00007,-0.57139 2.6818,-0.33483 2.03785,0.70711 -0.53221,0.86114 -0.24068,1.56571 0.64787,1.56571 0.88854,0 1.3469,0.7955 1.01857,1.76777 -0.32831,0.97227 0.14929,3.67696 1.06134,6.01041 0.94088,2.4072 1.56187,10.36075 1.43546,18.38477 -0.30675,19.46993 0.2799,20.5061 11.60994,20.5061 4.97687,0 8.70502,-0.55634 8.28477,-1.23629 -0.42023,-0.67997 0.77265,-2.89444 2.65085,-4.92105 3.22753,-3.48256 3.66973,-3.57762 8.05853,-1.73227 2.55397,1.07386 4.87674,2.65194 5.16171,3.50684 0.28496,0.85489 1.73788,1.55434 3.22869,1.55434 1.49082,0 2.71058,0.67928 2.71058,1.50952 0,0.84383 1.19481,1.1303 2.70941,0.64958 1.49018,-0.47297 3.11872,-0.19765 3.619,0.6118 0.50027,0.80947 3.13696,1.47174 5.85932,1.47174 3.38526,0 4.63038,-0.51676 3.9393,-1.63497 -0.72347,-1.17057 0.27233,-1.3784 3.50589,-0.7317 3.23422,0.64685 4.73504,0.3334 5.28668,-1.10416 0.44104,-1.14934 1.72622,-1.64061 3.00659,-1.14929 1.45371,0.55784 1.88741,0.29366 1.23935,-0.75493 -0.61172,-0.98978 0.39156,-1.96159 2.59642,-2.51497 1.97636,-0.49604 3.59336,-1.46928 3.59336,-2.16279 0,-2.83631 0.2868,-3.43026 2.1631,-4.48028 1.0791,-0.60393 1.6022,-2.03582 1.1624,-3.18198 -0.4398,-1.14615 -0.095,-2.08392 0.7659,-2.08392 0.861,0 1.5655,-1.59099 1.5655,-3.53553 0,-1.94454 -0.5569,-3.53553 -1.2375,-3.53553 -0.6806,0 -1.6389,-2.00764 -2.1297,-4.46141 -1.0995,-5.49757 -3.2809,-8.26652 -6.5124,-8.26652 -3.87829,0 -2.92353,-6.25286 1.0407,-6.81587 1.7501,-0.24855 3.182,-1.04404 3.182,-1.76777 0,-0.72372 0.9546,-1.31585 2.1213,-1.31585 2.7422,0 2.7608,-3.69466 0.024,-4.74491 -1.1536,-0.44268 -1.7616,-1.68024 -1.351,-2.75014 0.9434,-2.45852 -7.54386,-10.88973 -10.96215,-10.88973 -1.40798,0 -2.55995,-0.64851 -2.55995,-1.44115 0,-0.8527 -1.52979,-1.05721 -3.74647,-0.50086 -2.86814,0.71986 -3.47971,0.50869 -2.60867,-0.9007 0.90836,-1.46975 -0.50503,-1.64792 -7.00884,-0.88353 -9.29028,1.09189 -13.05717,2.7741 -16.76384,7.48637 -1.43241,1.82102 -3.77637,3.31094 -5.20878,3.31094 -2.21391,0 -2.50468,0.86803 -1.93929,5.78938 0.44227,3.84972 0.1647,5.48011 -0.82849,4.86628 -0.82148,-0.5077 -1.53394,-0.09 -1.58325,0.92814 -0.0493,1.01817 -0.66519,0.41934 -1.36863,-1.33075 -0.70346,-1.75009 -1.9788,-3.18198 -2.83409,-3.18198 -0.94206,0 -1.17904,-1.1848 -0.60117,-3.00553 0.64192,-2.02252 0.44182,-2.68903 -0.61181,-2.03785 -1.03279,0.6383 -1.56572,-0.74549 -1.56572,-4.06554 0,-4.80943 -0.22007,-5.03322 -4.94975,-5.03322 -2.72236,0 -4.94975,-0.64851 -4.94975,-1.44115 0,-0.8527 -1.52978,-1.05721 -3.74646,-0.50086 -2.83742,0.71214 -3.47529,0.50152 -2.62885,-0.86804 0.88503,-1.43199 -0.61632,-1.59357 -7.21368,-0.77629 -4.72886,0.58579 -8.82034,1.89004 -9.46225,3.0163 -1.49174,2.6173 -5.10989,2.53648 -6.13582,-0.13706 -0.57011,-1.48568 -2.8875,-2.12132 -7.7338,-2.12132 -9.96425,0 -12.57661,3.03546 -12.57661,14.61353 0,6.79435 -0.48481,8.9567 -2.00816,8.9567 -1.16245,0 -2.38644,-2.01654 -2.90644,-4.78837 -0.49407,-2.63361 -1.81779,-5.14122 -2.9416,-5.57247 -1.12382,-0.43124 -2.0433,-2.00929 -2.0433,-3.50677 0,-3.15551 -5.81523,-5.9678 -7.34855,-3.55381 -0.63598,1.00128 -1.31543,0.68789 -1.91906,-0.88515 -0.51396,-1.33938 -1.76796,-2.43524 -2.78666,-2.43524 -1.01869,0 -2.07122,-0.65718 -2.33897,-1.46041 -0.71518,-2.14555 -22.00827,-2.22862 -23.79052,-0.0928 -0.38891,0.46605 -3.57089,1.85675 -7.07107,3.09041 -5.08243,1.79134 -6.45241,2.9843 -6.80319,5.92413 -0.33481,2.80609 -1.34327,3.78548 -4.24264,4.12029 -3.1856,0.36788 -3.80341,1.12839 -3.80341,4.68187 0,2.33345 0.52432,4.62746 1.16515,5.09779 0.64084,0.47034 0.10084,1.91948 -1.20001,3.22032 -3.2142,3.21419 -1.74714,18.26089 2.00664,20.58085 1.36859,0.84584 1.24461,1.62374 -0.54385,3.4122 -2.14597,2.14597 -2.02347,2.57443 1.66328,5.81768 2.18892,1.92559 5.41175,3.52119 7.16184,3.54577 1.75009,0.0246 4.315,1.15838 5.69981,2.51956 4.44829,4.37237 11.37964,7.0274 18.69537,7.16117 3.2602,0.0596 3.31527,-0.0391 0.70711,-1.26776 z m -70.38659,-47.40647 c -0.46992,-0.46993 -1.6897,-0.52016 -2.71058,-0.11164 -1.12816,0.45145 -0.79306,0.78656 0.85443,0.85441 1.49081,0.0614 2.32608,-0.27284 1.85615,-0.74277 z M 48.188194,476.42018 c 0.381015,-0.61649 1.467869,-0.82681 2.415231,-0.46737 0.947362,0.35944 3.032654,-1.73666 4.63398,-4.65797 1.601327,-2.92131 3.703707,-5.141 4.671955,-4.93266 0.968249,0.20834 2.792512,-0.65326 4.053917,-1.91466 1.881047,-1.88105 2.230053,-5.04126 1.940835,-17.57405 -0.273954,-11.87128 0.08894,-15.54597 1.626509,-16.47012 1.088525,-0.65424 2.442679,-2.44449 3.009228,-3.97832 0.863515,-2.33782 1.242979,-2.45218 2.346571,-0.70711 1.118115,1.76802 1.319744,1.7253 1.338136,-0.28352 0.01318,-1.43981 1.95824,-3.00433 4.971403,-3.99876 2.722361,-0.89846 4.949748,-2.20063 4.949748,-2.89372 0,-0.69308 1.058991,-0.85378 2.353315,-0.3571 1.582343,0.6072 2.018311,0.361 1.33075,-0.75149 -0.921338,-1.49076 0.774482,-2.3023 3.779908,-1.80891 0.605006,0.0993 1.453168,-0.73971 1.884804,-1.86454 0.431638,-1.12483 1.686721,-1.69903 2.789077,-1.27603 1.102354,0.42302 2.004281,0.0646 2.004281,-0.7964 0,-0.86104 0.992153,-1.56552 2.204788,-1.56552 1.21263,0 1.85342,-0.56851 1.42398,-1.26336 -0.42944,-0.69484 0.8058,-1.66156 2.74497,-2.14826 1.93916,-0.4867 3.52576,-1.54674 3.52576,-2.35564 0,-0.8089 0.62836,-1.08238 1.39636,-0.60773 1.2771,0.78929 2.46597,0.10088 7.50418,-4.34526 0.95222,-0.84031 2.52113,-1.26457 3.48645,-0.9428 0.96533,0.32178 1.75514,-0.10438 1.75514,-0.94702 0,-0.84264 0.9546,-1.53206 2.12132,-1.53206 1.16673,0 2.12132,-0.67396 2.12132,-1.49768 0,-0.82373 0.6364,-1.10436 1.41422,-0.62364 0.77781,0.48071 1.41421,0.24296 1.41421,-0.52835 0,-0.7713 1.42945,-1.85606 3.17655,-2.41057 1.74711,-0.55452 3.81539,-1.74051 4.5962,-2.63555 1.91682,-2.19725 11.68194,-5.41185 13.33545,-4.38993 1.58617,0.98031 5.9603,-4.83386 4.91231,-6.52953 -0.40237,-0.65107 0.57875,-1.18374 2.18029,-1.18374 1.60154,0 2.9119,-0.54815 2.9119,-1.21811 0,-0.66995 1.59099,-0.91396 3.53553,-0.54224 2.89495,0.5534 3.53554,0.1184 3.53554,-2.40089 0,-1.69222 0.63639,-2.68344 1.41421,-2.20273 0.77782,0.48072 1.41421,0.20009 1.41421,-0.62363 0,-2.41039 2.31975,-1.74311 6.67229,1.91931 2.23347,1.87935 6.4133,3.85831 9.28851,4.39771 2.87521,0.53939 4.87747,1.54733 4.44946,2.23986 -0.70571,1.14186 1.28184,1.85342 3.98493,1.42661 0.58336,-0.0921 1.06066,0.50649 1.06066,1.33021 0,0.82373 0.64089,1.10158 1.4242,0.61746 0.78331,-0.4841 1.77284,0.0283 2.19896,1.1388 0.42611,1.11044 4.39909,3.82809 8.82885,6.03923 4.42974,2.21114 8.52164,4.68401 9.09309,5.49526 0.57146,0.81127 1.04876,0.97294 1.06066,0.35927 0.0119,-0.61365 1.39083,0.15984 3.06425,1.71886 1.67344,1.55905 3.58263,2.50087 4.24264,2.09296 0.66003,-0.40792 1.20005,-0.0798 1.20005,0.72907 0,0.8089 1.59099,1.87004 3.53553,2.3581 1.94454,0.48804 3.53553,1.4054 3.53553,2.03859 0,0.63317 2.22739,1.88632 4.94975,2.78478 2.72236,0.89846 4.94975,2.22061 4.94975,2.9381 0,0.7175 0.95459,1.30454 2.12132,1.30454 1.16672,0 2.12132,0.59352 2.12132,1.31891 0,1.35848 5.5069,3.71264 7.46398,3.19081 0.605,-0.16132 1.45316,0.627 1.88479,1.75182 0.43165,1.12484 1.53206,1.7584 2.44537,1.40793 0.91332,-0.35048 2.29254,0.8034 3.06494,2.56416 0.77241,1.76077 2.67717,3.24513 4.2328,3.29856 4.62073,0.15873 9.2939,2.13 8.41618,3.55018 -0.4495,0.72732 0.126,1.68436 1.27888,2.12675 1.24691,0.47849 3.83083,-1.01079 6.37773,-3.67588 2.58762,-2.70769 4.95754,-4.06245 5.99016,-3.42428 1.10613,0.68364 1.34043,0.46029 0.66448,-0.63342 -0.74768,-1.20978 -0.0562,-1.44147 2.43548,-0.81609 2.77075,0.69541 4.5234,-0.20148 8.60377,-4.4029 2.81831,-2.90192 5.12419,-5.58292 5.12419,-5.95777 0,-1.76173 -7.51599,-7.36985 -9.87705,-7.36985 -1.46314,0 -3.06717,-1.28202 -3.56449,-2.84896 -0.49733,-1.56693 -1.45083,-2.51115 -2.11891,-2.09825 -0.66807,0.41289 -1.62081,0.0935 -2.11721,-0.70964 -0.49641,-0.80319 -1.49497,-1.09422 -2.21905,-0.64671 -0.72406,0.4475 -1.31649,0.15181 -1.31649,-0.6571 0,-0.8089 -1.59099,-1.87004 -3.53553,-2.3581 -1.94455,-0.48804 -3.53554,-1.49232 -3.53554,-2.23173 0,-0.73939 -0.63639,-0.95104 -1.41421,-0.47032 -0.77782,0.48072 -1.41421,0.32008 -1.41421,-0.35698 0,-2.40654 -5.7092,-7.31234 -7.64526,-6.56942 -1.08248,0.4154 -2.39468,0.0651 -2.91602,-0.77844 -0.52132,-0.84353 -1.54029,-1.16756 -2.26437,-0.72004 -0.72406,0.4475 -1.31649,0.13968 -1.31649,-0.68404 0,-0.82373 -1.20993,-1.49768 -2.68873,-1.49768 -1.57723,0 -3.90425,-2.06014 -5.62906,-4.98347 -3.28842,-5.57344 -6.40713,-7.36659 -9.0285,-5.19105 -1.22226,1.01439 -2.82435,0.86321 -5.28528,-0.49878 -1.94226,-1.07491 -2.89498,-1.98114 -2.11717,-2.01383 0.77782,-0.0327 -0.45527,-1.29179 -2.7402,-2.79802 -2.28494,-1.50622 -4.67142,-2.41907 -5.30331,-2.02854 -0.63188,0.39053 -1.14887,0.0361 -1.14887,-0.78762 0,-0.82373 -0.9546,-1.49768 -2.12132,-1.49768 -1.16673,0 -2.12132,-0.53425 -2.12132,-1.18721 0,-1.5871 -6.43066,-4.44193 -10.31959,-4.5813 -1.71349,-0.0614 -2.32563,-0.43074 -1.36031,-0.82074 2.82878,-1.14287 -1.64153,-4.72446 -5.89676,-4.72446 -2.00011,0 -3.63655,-0.67396 -3.63655,-1.49768 0,-0.82372 -0.60446,-1.12409 -1.34326,-0.6675 -0.73879,0.45661 -2.02018,-0.43466 -2.84752,-1.98056 -1.71114,-3.1973 -10.58816,-7.82844 -14.44827,-7.53766 -1.41578,0.10665 -2.57415,-0.6136 -2.57415,-1.60055 0,-0.98695 -1.51144,-2.60336 -3.35876,-3.592 -3.65505,-1.95613 -8.91677,-0.2323 -11.22385,3.67712 -0.63116,1.06953 -1.74485,1.57546 -2.47487,1.1243 -0.73002,-0.45118 -1.3273,-0.10881 -1.3273,0.76082 0,0.86963 -0.58871,1.2173 -1.30823,0.7726 -2.00899,-1.24161 -8.59126,2.24858 -8.59126,4.55545 0,1.23732 -0.83822,1.72397 -2.12132,1.2316 -1.28419,-0.49279 -2.12132,-0.005 -2.12132,1.2353 0,1.43688 -1.24844,1.90395 -4.17752,1.5629 -2.98328,-0.34734 -5.07519,0.46912 -7.31759,2.85605 -1.72703,1.83835 -2.55183,3.3618 -1.83289,3.38546 0.71895,0.0236 0.0344,0.78906 -1.52125,1.70091 -3.2418,1.90021 -7.50045,2.23614 -10.67084,0.84171 -1.67706,-0.73761 -2.16164,-0.0809 -2.08277,2.82275 0.11785,4.33861 -1.43901,5.85292 -6.049,5.88368 -1.78544,0.0119 -4.76975,1.54514 -6.6318,3.40719 -1.86205,1.86205 -3.74231,3.02878 -4.17836,2.59272 -0.43605,-0.43604 -0.79282,0.0557 -0.79282,1.09281 0,1.03708 -0.3723,1.51332 -0.82733,1.05828 -1.16238,-1.16239 -9.072162,1.76511 -9.072162,3.35771 0,0.72098 -1.59099,1.91576 -3.535534,2.65507 -1.944544,0.73931 -3.535534,2.03391 -3.535534,2.8769 0,0.84297 -0.540017,1.19892 -1.200039,0.79101 -0.660022,-0.40792 -2.410111,0.36836 -3.889088,1.72504 -1.478976,1.3567 -3.646983,2.27263 -4.817795,2.03538 -1.170811,-0.23723 -4.248735,1.81626 -6.83983,4.56331 -2.591097,2.74707 -5.292437,4.63536 -6.002982,4.19623 -0.710543,-0.43914 -1.291896,-0.14446 -1.291896,0.65485 0,0.79931 -0.954594,1.08698 -2.121321,0.63927 -1.166726,-0.44773 -2.12132,-0.10955 -2.12132,0.75148 0,0.86105 -1.483452,1.56552 -3.29656,1.56552 -2.039948,0 -3.994798,1.30467 -5.128299,3.42264 -1.007455,1.88245 -2.623928,3.11864 -3.592159,2.7471 -0.968233,-0.37156 -2.751617,0.31565 -3.963076,1.52711 -1.211458,1.21145 -2.816418,2.20265 -3.566576,2.20265 -0.750157,0 -1.70509,0.88907 -2.122074,1.97571 -0.645122,1.68116 -1.399543,45.56831 -1.066276,62.02888 l 0.107603,5.31471 6.423604,-0.24296 c 3.532981,-0.13364 6.735342,-0.74738 7.116358,-1.36388 z"
       id="path7" />
  </g>
  <g
     inkscape:groupmode="layer"
     id="layer1"
     inkscape:label="layer1"
     style="display:inline">
    <g
       id="g4"
       sodipodi:insensitive="true"
       style="display:inline">
      <path
         style="fill:#5f1bf2;fill-opacity:1"
         d="m 35.879622,477.4411 -0.220121,-64.49527 137.575239,-79.02322 131.41186,76.38178 -26.85468,15.62854 -104.7773,-60.86328 -110.940673,63.50473 0.660361,33.89854 z"
         id="path1" />
      <path
         style="fill:#5f1bf2;fill-opacity:1"
         d="M 148.02183,427.09979 35.643532,494.80694 v 72.6879 l 122.495458,71.28707 0.15565,-31.59667 -95.568249,-56.0335 -0.311297,-50.5858 96.035196,-57.58999 z"
         id="path2" />
      <circle
         style="display:inline;fill:#5f1bf2;fill-opacity:1;stroke-width:1.49138"
         id="path3-3"
         cx="174.49875"
         cy="422.29623"
         r="26.927208" />
      <circle
         style="display:inline;fill:#ffffff;stroke-width:0.663793"
         id="path3"
         cx="174.01515"
         cy="422.11902"
         r="11.984942" />
    </g>
    <text
       xml:space="preserve"
       style="font-style:normal;font-variant:normal;font-weight:800;font-stretch:normal;font-size:114.667px;font-family:'Bespoke Slab';-inkscape-font-specification:'Bespoke Slab Ultra-Bold';writing-mode:lr-tb;direction:ltr;display:inline;fill:#5f1bf2;fill-opacity:1"
       x="321.75439"
       y="528.2088"
       id="text6"
       sodipodi:insensitive="true"><tspan
         sodipodi:role="line"
         id="tspan6"
         x="321.75439"
         y="528.2088">Dev</tspan></text>
  </g>
  <g
     inkscape:groupmode="layer"
     id="layer2"
     inkscape:label="layer2"
     style="display:inline">
    <g
       id="g6"
       sodipodi:insensitive="true"
       style="display:inline">
      <path
         style="fill:#076df2;fill-opacity:1"
         d="m 216.35157,498.77598 66.53978,-37.74479 0.54477,121.63939 26.53809,-15.72051 -0.0778,-143.1189 -95.95737,54.16572 z"
         id="path4" />
      <path
         style="fill:#076df2;fill-opacity:1"
         d="m 309.93374,566.96706 -135.0132,80.21242 -0.17678,-76.36753 -37.03471,-22.27387 9.89949,-16.35184 46.49227,27.66555 0.35355,43.57546 L 283.3125,551.5 Z"
         id="path5" />
      <circle
         style="fill:#076df2;fill-opacity:1;stroke-width:2.10527"
         id="path6-1-3-6"
         cy="529.625"
         cx="122.75"
         r="25" />
      <circle
         style="display:inline;fill:#ffffff;fill-opacity:1"
         id="path6"
         cy="529.75"
         cx="122.5"
         r="11.875" />
      <circle
         style="fill:#076df2;fill-opacity:1;stroke-width:2.10527"
         id="path6-1-3"
         cy="491.25"
         cx="193"
         r="25" />
      <circle
         style="display:inline;fill:#ffffff;fill-opacity:1"
         id="path6-1"
         cy="491.25"
         cx="193"
         r="11.875" />
    </g>
    <text
       xml:space="preserve"
       style="font-style:normal;font-variant:normal;font-weight:800;font-stretch:normal;font-size:114.667px;font-family:'Bespoke Slab';-inkscape-font-specification:'Bespoke Slab Ultra-Bold';writing-mode:lr-tb;direction:ltr;display:inline;fill:#076df2;fill-opacity:1"
       x="549.68542"
       y="527.9765"
       id="text7"
       sodipodi:insensitive="true"><tspan
         sodipodi:role="line"
         id="tspan7"
         x="549.68542"
         y="527.9765">Options</tspan></text>
  </g>
</svg>
